<svg xmlns="http://www.w3.org/2000/svg" width="18" height="20"><path fill="#fe3e57" d="M17.818 18.999l-5.571-5.443c2.158-2.108 3.621-3.376 5.751-5.619v10.309c0 .271-.068.524-.18.753zM15.599 5.107l1.799 1.759-1.799 1.758V5.107zM6.848 12.97L3.599 9.797V.637c0-.354.294-.337.657-.337h9.374c.91 0 .769.032.769.447v9.05L11.15 12.97H6.848zm2.151-9.379c1.655 0 3 1.315 3 2.931 0 .775-1.2.775-1.2 0 0-.969-.808-1.758-1.8-1.758-.399 0-1.8.789-1.8 1.758 0 .97 1.401 1.759 1.8 1.759.462 0 .88-.176 1.199-.457 1.167 1.029 3.001.466 3.001-1.302 0-2.262-1.884-4.103-4.2-4.103-2.315 0-4.2 1.841-4.2 4.103 0 1.405.726 2.697 1.94 3.457 1.381.797 2.801.841 4.176.223.722-.324.214-1.39-.502-1.065-1.034.464-2.137.412-3.028-.145a2.907 2.907 0 01-1.386-2.47c0-1.616 1.345-2.931 3-2.931zm0 3.517c-.33 0-.6-.262-.6-.586 0-.323.27-.586.6-.586.316 0 .569.242.592.546-.066.348-.177.626-.592.626zm-6.6-2.001v3.517L.6 6.866l1.799-1.759zM.18 18.999c.5-.229-.18-.482-.18-.753V7.937l5.751 5.619L.18 18.999zm10.97-4.856l5.82 5.685c-.235.11-.494.572-.771.572h-14.4c-.276 0-.536-.462-.519-.572l5.568-5.685h4.302z"/></svg>